<svg width="46" height="36" viewBox="0 0 46 36" fill="none" xmlns="http://www.w3.org/2000/svg">
<path d="M40.5204 15.7031C40.6176 16.4648 40.6664 17.232 40.6667 17.9999C40.6695 21.3633 39.7292 24.66 37.9527 27.5158C36.1761 30.3716 33.6345 32.6721 30.6163 34.1561C27.5981 35.6401 24.2242 36.2482 20.8778 35.9113C17.5315 35.5743 14.3466 34.3059 11.6848 32.2499C16.4079 31.0949 21.9636 28.7006 27.1423 25.7249C32.6623 22.5543 37.3217 19.0237 40.5204 15.7031ZM44.6248 5.37745C43.1904 2.90432 39.4048 2.34745 33.6561 3.7537C30.9946 1.69577 27.8093 0.425526 24.4621 0.0872558C21.1148 -0.251014 17.7398 0.356252 14.7204 1.84007C11.701 3.32389 9.15833 5.62478 7.38113 8.48135C5.60393 11.3379 4.66351 14.6357 4.66668 17.9999C4.66691 18.7716 4.71576 19.5425 4.81293 20.3081C-0.378946 25.6874 -0.303946 28.8749 0.710429 30.6224C1.66668 32.2799 3.66168 32.9999 6.28668 32.9999C8.10922 32.9622 9.92102 32.7105 11.6848 32.2499C10.7177 31.5023 9.8282 30.6593 9.0298 29.7337C5.78793 30.2737 3.7798 29.9212 3.30543 29.1168C3.03168 28.6462 3.18355 27.7593 3.72168 26.6793C4.25376 25.6678 4.90052 24.721 5.64918 23.8574C5.65006 23.8519 5.65006 23.8462 5.64918 23.8406V23.8556C6.3933 26.0086 7.53848 28.0012 9.02418 29.7281C12.9504 29.0737 18.6786 27.1199 25.6423 23.1187C30.9167 20.0981 36.5417 15.8756 39.6898 12.1537C38.9485 9.99768 37.8031 8.00272 36.3148 6.27557L36.2904 6.24745C36.2904 6.25682 36.3073 6.26432 36.3148 6.27557C38.9792 5.83495 41.4467 5.8687 42.0336 6.88307C42.2061 7.17744 42.2211 7.61807 42.0617 8.19557C41.7448 9.37869 40.9011 10.7324 39.6936 12.1574C40.0906 13.3092 40.3689 14.4985 40.5242 15.7068C42.8679 13.2693 44.4279 10.9537 44.9586 8.97182C45.3223 7.59557 45.2117 6.38807 44.6248 5.37745Z" fill="#1D1E1C"/>
</svg>
