<svg width="48" height="28" viewBox="0 0 48 28" fill="none" xmlns="http://www.w3.org/2000/svg">
<path d="M26.3334 5.00004C26.3334 4.60222 26.4914 4.22069 26.7727 3.93938C27.054 3.65808 27.4355 3.50004 27.8334 3.50004H45.8334C46.2312 3.50004 46.6127 3.65808 46.894 3.93938C47.1753 4.22069 47.3334 4.60222 47.3334 5.00004C47.3334 5.39787 47.1753 5.7794 46.894 6.0607C46.6127 6.34201 46.2312 6.50004 45.8334 6.50004H27.8334C27.4355 6.50004 27.054 6.34201 26.7727 6.0607C26.4914 5.7794 26.3334 5.39787 26.3334 5.00004ZM45.8334 12.5H27.8334C27.4355 12.5 27.054 12.6581 26.7727 12.9394C26.4914 13.2207 26.3334 13.6022 26.3334 14C26.3334 14.3979 26.4914 14.7794 26.7727 15.0607C27.054 15.342 27.4355 15.5 27.8334 15.5H45.8334C46.2312 15.5 46.6127 15.342 46.894 15.0607C47.1753 14.7794 47.3334 14.3979 47.3334 14C47.3334 13.6022 47.1753 13.2207 46.894 12.9394C46.6127 12.6581 46.2312 12.5 45.8334 12.5ZM45.8334 21.5H32.3334C31.9355 21.5 31.554 21.6581 31.2727 21.9394C30.9914 22.2207 30.8334 22.6022 30.8334 23C30.8334 23.3979 30.9914 23.7794 31.2727 24.0607C31.554 24.342 31.9355 24.5 32.3334 24.5H45.8334C46.2312 24.5 46.6127 24.342 46.894 24.0607C47.1753 23.7794 47.3334 23.3979 47.3334 23C47.3334 22.6022 47.1753 22.2207 46.894 21.9394C46.6127 21.6581 46.2312 21.5 45.8334 21.5ZM19.8252 16.625C21.3139 15.4784 22.4064 13.8946 22.9494 12.0956C23.4924 10.2967 23.4587 8.37296 22.8531 6.59414C22.2475 4.81533 21.1002 3.27069 19.5723 2.17686C18.0444 1.08303 16.2125 0.494873 14.3334 0.494873C12.4543 0.494873 10.6223 1.08303 9.09441 2.17686C7.5665 3.27069 6.41928 4.81533 5.81364 6.59414C5.208 8.37296 5.17433 10.2967 5.71734 12.0956C6.26035 13.8946 7.3528 15.4784 8.84149 16.625C4.97524 18.2619 1.92837 21.5563 0.880242 25.625C0.822995 25.8468 0.81727 26.0786 0.863507 26.3029C0.909744 26.5272 1.00672 26.7379 1.14699 26.9189C1.28726 27.0999 1.46711 27.2464 1.67276 27.3471C1.8784 27.4478 2.10438 27.5002 2.33337 27.5H26.3334C26.5624 27.5002 26.7883 27.4478 26.994 27.3471C27.1996 27.2464 27.3795 27.0999 27.5197 26.9189C27.66 26.7379 27.757 26.5272 27.8032 26.3029C27.8495 26.0786 27.8437 25.8468 27.7865 25.625C26.7384 21.5544 23.6915 18.26 19.8252 16.625Z" fill="#1D1E1C"/>
</svg>
